<?xml version="1.0" standalone="no"?>
<!DOCTYPE svg PUBLIC "-//W3C//DTD SVG 20010904//EN"
 "http://www.w3.org/TR/2001/REC-SVG-20010904/DTD/svg10.dtd">
<svg version="1.0" xmlns="http://www.w3.org/2000/svg"
 width="250.000000pt" height="250.000000pt" viewBox="0 0 250.000000 250.000000"
 preserveAspectRatio="xMidYMid meet">
<metadata>
Created by potrace 1.11, written by Peter Selinger 2001-2013
</metadata>
<g transform="translate(0.000000,250.000000) scale(0.100000,-0.100000)"
fill="#000000" stroke="none">
<path d="M410 2457 c-16 -4 -35 -17 -42 -30 -9 -17 -12 -191 -13 -729 0 -390
3 -721 8 -738 10 -41 37 -52 126 -54 95 -2 126 7 141 44 13 31 17 520 5 540
-3 6 -1 10 4 10 6 0 11 -4 11 -10 0 -5 14 -39 30 -73 17 -35 30 -68 30 -72 0
-4 11 -23 26 -42 32 -42 60 -43 151 -2 121 54 125 68 59 218 -24 55 -42 102
-38 105 3 3 18 6 33 6 44 0 159 39 224 76 71 40 113 81 149 147 31 57 37 83
41 170 8 175 -66 299 -220 371 -80 38 -132 52 -225 62 -94 9 -465 10 -500 1z
m566 -230 c106 -26 156 -85 156 -187 0 -139 -74 -180 -336 -185 l-153 -2 -3
56 c-1 31 -2 63 -1 71 3 42 0 103 -4 110 -3 5 -2 11 3 14 4 3 5 29 2 59 -3 30
-4 60 -2 67 3 9 43 11 161 7 86 -3 165 -7 177 -10z"/>
<path d="M1915 1508 c-24 -14 -45 -34 -45 -43 0 -21 -378 -863 -394 -878 -38
-34 -64 -19 -103 58 -157 314 -270 524 -290 543 -31 28 -52 28 -119 -3 -30
-14 -59 -25 -64 -25 -6 0 -10 -4 -10 -10 0 -5 -5 -10 -11 -10 -16 0 -38 -31
-39 -55 -1 -49 478 -1018 512 -1036 22 -12 153 -15 187 -4 18 5 40 44 86 150
7 17 28 62 45 100 18 39 43 97 57 130 14 33 35 83 48 110 12 28 88 201 169
385 81 184 154 350 162 368 39 85 42 95 31 125 -8 24 -25 37 -85 64 -88 41
-110 46 -137 31z"/>
</g>
</svg>
